Moderustic-SemiBold.ufo
<glyph name="comma" format="2">
  <advance width="262"/>
  <unicode hex="002C"/>
  <outline>
    <contour>
      <point x="61" y="-168" type="line"/>
      <point x="154" y="-115"/>
      <point x="210" y="-34"/>
      <point x="210" y="48" type="curve" smooth="yes"/>
      <point x="210" y="106"/>
      <point x="176" y="138"/>
      <point x="131" y="138" type="curve" smooth="yes"/>
      <point x="85" y="138"/>
      <point x="52" y="104"/>
      <point x="52" y="59" type="curve" smooth="yes"/>
      <point x="52" y="1.495"/>
      <point x="94.283" y="-20"/>
      <point x="145" y="-20" type="curve"/>
      <point x="136" y="-62"/>
      <point x="104" y="-104"/>
      <point x="52" y="-139" type="curve"/>
    </contour>
  </outline>
</glyph>
<glyph name="period" format="2">
  <advance width="262"/>
  <unicode hex="002E"/>
  <outline>
    <contour>
      <point x="131" y="-20" type="curve" smooth="yes"/>
      <point x="176" y="-20"/>
      <point x="210" y="16"/>
      <point x="210" y="60" type="curve" smooth="yes"/>
      <point x="210" y="104"/>
      <point x="176" y="138"/>
      <point x="131" y="138" type="curve" smooth="yes"/>
      <point x="85" y="138"/>
      <point x="52" y="104"/>
      <point x="52" y="60" type="curve" smooth="yes"/>
      <point x="52" y="16"/>
      <point x="85" y="-20"/>
    </contour>
  </outline>
</glyph>
<glyph name="K" format="2">
  <advance width="670"/>
  <unicode hex="004B"/>
  <anchor x="335" y="-20" name="bottom"/>
  <anchor x="335" y="719" name="top"/>
  <outline>
    <contour>
      <point x="212" y="0" type="line"/>
      <point x="212" y="700" type="line" name="av02"/>
      <point x="67" y="700" type="line"/>
      <point x="67" y="0" type="line" name="av01"/>
    </contour>
    <contour>
      <point x="325" y="299" type="line"/>
      <point x="484" y="0" type="line"/>
      <point x="653" y="0" type="line"/>
      <point x="441" y="367" type="line"/>
      <point x="649" y="700" type="line"/>
      <point x="498" y="700" type="line"/>
      <point x="337" y="421" type="line"/>
      <point x="111" y="421" type="line"/>
      <point x="100" y="299" type="line"/>
    </contour>
  </outline>
</glyph>
<glyph name="M" format="2">
  <advance width="888"/>
  <unicode hex="004D"/>
  <anchor x="444" y="719" name="top"/>
  <anchor x="444" y="-20" name="bottom"/>
  <outline>
    <contour>
      <point x="67" y="0" type="line" name="ab03"/>
      <point x="213" y="0" type="line"/>
      <point x="213" y="414" type="line" name="iv01"/>
      <point x="406" y="0" type="line" name="ab01"/>
      <point x="482" y="0" type="line"/>
      <point x="675" y="414" type="line" name="iv02"/>
      <point x="675" y="0" type="line" name="ab02"/>
      <point x="821" y="0" type="line"/>
      <point x="821" y="700" type="line" name="at01"/>
      <point x="675" y="700" type="line"/>
      <point x="444" y="204" type="line" name="iv03"/>
      <point x="213" y="700" type="line" name="at02"/>
      <point x="67" y="700" type="line"/>
    </contour>
  </outline>
</glyph>
<glyph name="N" format="2">
  <advance width="732"/>
  <unicode hex="004E"/>
  <anchor x="366" y="719" name="top"/>
  <anchor x="366" y="-20" name="bottom"/>
  <outline>
    <contour>
      <point x="67" y="0" type="line"/>
      <point x="213" y="0" type="line" name="ab01"/>
      <point x="213" y="468" type="line" name="iv01"/>
      <point x="529" y="0" type="line" name="ab02"/>
      <point x="665" y="0" type="line"/>
      <point x="665" y="700" type="line" name="at01"/>
      <point x="519" y="700" type="line"/>
      <point x="519" y="232" type="line" name="iv02"/>
      <point x="203" y="700" type="line" name="at02"/>
      <point x="67" y="700" type="line"/>
    </contour>
  </outline>
</glyph>
<glyph name="U" format="2">
  <advance width="675"/>
  <unicode hex="0055"/>
  <anchor x="338" y="719" name="top"/>
  <anchor x="338" y="-20" name="bottom"/>
  <anchor x="449" y="-1" name="ogonek"/>
  <outline>
    <contour>
      <point x="60" y="700" type="line" name="at01"/>
      <point x="60" y="262" type="line" smooth="yes"/>
      <point x="60" y="88"/>
      <point x="165" y="-20"/>
      <point x="336" y="-20" type="curve" smooth="yes" name="dv01"/>
      <point x="507" y="-20"/>
      <point x="615" y="89"/>
      <point x="615" y="262" type="curve" smooth="yes"/>
      <point x="615" y="700" type="line" name="at02"/>
      <point x="469" y="700" type="line"/>
      <point x="469" y="292" type="line" smooth="yes"/>
      <point x="469" y="157"/>
      <point x="430" y="100"/>
      <point x="337" y="100" type="curve" smooth="yes" name="dv02"/>
      <point x="245" y="100"/>
      <point x="206" y="156"/>
      <point x="206" y="292" type="curve" smooth="yes"/>
      <point x="206" y="700" type="line"/>
    </contour>
  </outline>
</glyph>
<glyph name="Z" format="2">
  <advance width="577"/>
  <unicode hex="005A"/>
  <anchor x="300" y="719" name="top"/>
  <anchor x="290" y="-20" name="bottom"/>
  <outline>
    <contour>
      <point x="20" y="0" type="line" name="ab01"/>
      <point x="560" y="0" type="line"/>
      <point x="560" y="120" type="line" name="sv01"/>
      <point x="194" y="120" type="line"/>
      <point x="558" y="590" type="line"/>
      <point x="558" y="700" type="line" name="at01"/>
      <point x="48" y="700" type="line"/>
      <point x="48" y="580" type="line" name="sv02"/>
      <point x="384" y="580" type="line"/>
      <point x="20" y="110" type="line"/>
    </contour>
  </outline>
</glyph>
<glyph name="r" format="2">
  <advance width="410"/>
  <unicode hex="0072"/>
  <anchor x="229" y="520" name="top"/>
  <anchor x="126" y="-20" name="bottom"/>
  <outline>
    <contour>
      <point x="55" y="0" type="line" name="ab01"/>
      <point x="200" y="0" type="line"/>
      <point x="200" y="215" type="line" smooth="yes"/>
      <point x="200" y="342"/>
      <point x="239" y="410"/>
      <point x="376" y="410" type="curve" name="sv01"/>
      <point x="376" y="520" type="line" name="at01"/>
      <point x="288" y="519"/>
      <point x="230" y="469"/>
      <point x="200" y="395" type="curve" name="iv01"/>
      <point x="200" y="500" type="line"/>
      <point x="55" y="500" type="line" name="av01"/>
    </contour>
  </outline>
</glyph>
<glyph name="z" format="2">
  <advance width="473"/>
  <unicode hex="007A"/>
  <anchor x="246" y="520" name="top"/>
  <anchor x="236" y="-20" name="bottom"/>
  <outline>
    <contour>
      <point x="23" y="0" type="line" name="ab01"/>
      <point x="450" y="0" type="line"/>
      <point x="450" y="110" type="line" name="sv01"/>
      <point x="198" y="110" type="line"/>
      <point x="450" y="414" type="line"/>
      <point x="450" y="500" type="line"/>
      <point x="43" y="500" type="line" name="dv02"/>
      <point x="43" y="390" type="line" name="dv01"/>
      <point x="275" y="390" type="line"/>
      <point x="23" y="86" type="line"/>
    </contour>
  </outline>
</glyph>
<glyph name="degree" format="2">
  <advance width="483"/>
  <unicode hex="00B0"/>
  <outline>
    <contour>
      <point x="67" y="556" type="curve" smooth="yes"/>
      <point x="67" y="460"/>
      <point x="144" y="390"/>
      <point x="247" y="390" type="curve" smooth="yes"/>
      <point x="349" y="390"/>
      <point x="418" y="458"/>
      <point x="418" y="556" type="curve" smooth="yes"/>
      <point x="418" y="654"/>
      <point x="350" y="719"/>
      <point x="248" y="719" type="curve" smooth="yes"/>
      <point x="143" y="719"/>
      <point x="67" y="651"/>
    </contour>
    <contour>
      <point x="243" y="451" type="curve" smooth="yes"/>
      <point x="186" y="451"/>
      <point x="154" y="487"/>
      <point x="154" y="554" type="curve" smooth="yes"/>
      <point x="154" y="622"/>
      <point x="187" y="658"/>
      <point x="244" y="658" type="curve" smooth="yes"/>
      <point x="302" y="658"/>
      <point x="332" y="621"/>
      <point x="332" y="554" type="curve" smooth="yes"/>
      <point x="332" y="480"/>
      <point x="295" y="451"/>
    </contour>
  </outline>
</glyph>
<glyph name="onesuperior" format="2">
  <advance width="333"/>
  <unicode hex="00B9"/>
  <outline>
    <contour>
      <point x="186" y="343" type="line"/>
      <point x="291" y="343" type="line"/>
      <point x="291" y="828" type="line"/>
      <point x="206" y="828" type="line"/>
      <point x="171" y="768"/>
      <point x="96" y="715"/>
      <point x="27" y="700" type="curve"/>
      <point x="27" y="617" type="line"/>
      <point x="105" y="635"/>
      <point x="159" y="666"/>
      <point x="186" y="709" type="curve"/>
    </contour>
  </outline>
</glyph>
<glyph name="Hbar" format="2">
  <advance width="737"/>
  <unicode hex="0126"/>
  <outline>
    <contour>
      <point x="78" y="0" type="line" name="ab01"/>
      <point x="223" y="0" type="line"/>
      <point x="223" y="310" type="line" name="dv01"/>
      <point x="515" y="310" type="line"/>
      <point x="515" y="0" type="line" name="ab02"/>
      <point x="660" y="0" type="line"/>
      <point x="660" y="700" type="line" name="at01"/>
      <point x="515" y="700" type="line"/>
      <point x="515" y="430" type="line"/>
      <point x="223" y="430" type="line" name="dv02"/>
      <point x="223" y="700" type="line" name="at02"/>
      <point x="78" y="700" type="line"/>
    </contour>
    <contour>
      <point x="0.27" y="514" type="line"/>
      <point x="737.266" y="514" type="line"/>
      <point x="737.266" y="548" type="line"/>
      <point x="0.27" y="548" type="line"/>
    </contour>
  </outline>
</glyph>
<glyph name="Iogonek" format="2">
  <advance width="326"/>
  <unicode hex="012E"/>
  <anchor x="163" y="719" name="top"/>
  <anchor x="163" y="-20" name="bottom"/>
  <anchor x="-23" y="500" name="topgr"/>
  <outline>
    <contour>
      <point x="90" y="0" type="line"/>
      <point x="236" y="0" type="line"/>
      <point x="236" y="700" type="line"/>
      <point x="90" y="700" type="line"/>
    </contour>
    <contour>
      <point x="237" y="-182" type="line"/>
      <point x="194" y="-168"/>
      <point x="173" y="-137"/>
      <point x="173" y="-103" type="curve" smooth="yes"/>
      <point x="173" y="-66"/>
      <point x="197" y="-24"/>
      <point x="236" y="0" type="curve"/>
      <point x="203" y="3" type="line"/>
      <point x="114" y="-13"/>
      <point x="63" y="-55"/>
      <point x="63" y="-108" type="curve" smooth="yes"/>
      <point x="63" y="-158"/>
      <point x="107" y="-195"/>
      <point x="180" y="-205" type="curve"/>
    </contour>
  </outline>
</glyph>
<glyph name="iogonek" format="2">
  <advance width="272"/>
  <unicode hex="012F"/>
  <anchor x="136" y="-20" name="bottom"/>
  <anchor x="136" y="703" name="top"/>
  <outline>
    <contour>
      <point x="64" y="0" type="line" name="ab01"/>
      <point x="209" y="0" type="line"/>
      <point x="209" y="500" type="line"/>
      <point x="64" y="500" type="line" name="av01"/>
    </contour>
    <contour>
      <point x="61" y="634" type="curve" smooth="yes"/>
      <point x="61" y="600"/>
      <point x="87" y="560"/>
      <point x="138" y="560" type="curve" smooth="yes" name="dv01"/>
      <point x="189" y="560"/>
      <point x="212" y="598"/>
      <point x="212" y="635" type="curve" smooth="yes"/>
      <point x="212" y="672"/>
      <point x="187" y="706"/>
      <point x="139" y="706" type="curve" smooth="yes" name="dv02"/>
      <point x="87" y="706"/>
      <point x="61" y="668"/>
    </contour>
    <contour>
      <point x="210" y="-182" type="line"/>
      <point x="167" y="-168"/>
      <point x="146" y="-137"/>
      <point x="146" y="-103" type="curve" smooth="yes"/>
      <point x="146" y="-66"/>
      <point x="170" y="-24"/>
      <point x="209" y="0" type="curve"/>
      <point x="176" y="3" type="line"/>
      <point x="87" y="-13"/>
      <point x="36" y="-55"/>
      <point x="36" y="-108" type="curve" smooth="yes"/>
      <point x="36" y="-158"/>
      <point x="80" y="-195"/>
      <point x="153" y="-205" type="curve"/>
    </contour>
  </outline>
</glyph>
<glyph name="scedilla" format="2">
  <advance width="487"/>
  <unicode hex="015F"/>
  <anchor x="243" y="520" name="top"/>
  <anchor x="223" y="-218" name="bottom"/>
  <outline>
    <contour>
      <point x="27" y="67" type="line"/>
      <point x="74" y="13"/>
      <point x="147" y="-20"/>
      <point x="237" y="-20" type="curve" smooth="yes"/>
      <point x="360" y="-20"/>
      <point x="449" y="42.145"/>
      <point x="449" y="148.392" type="curve" smooth="yes"/>
      <point x="449" y="222.564"/>
      <point x="403.033" y="261.775"/>
      <point x="270" y="298.741" type="curve" smooth="yes"/>
      <point x="201.033" y="317.905"/>
      <point x="181" y="330.816"/>
      <point x="181" y="359.883" type="curve" smooth="yes"/>
      <point x="181" y="388.951"/>
      <point x="201" y="410"/>
      <point x="241" y="410" type="curve" smooth="yes"/>
      <point x="280" y="410"/>
      <point x="325" y="389.63"/>
      <point x="355" y="355" type="curve"/>
      <point x="433" y="433" type="line"/>
      <point x="386" y="487"/>
      <point x="313" y="520"/>
      <point x="229" y="520" type="curve" smooth="yes"/>
      <point x="110" y="520"/>
      <point x="36" y="453.846"/>
      <point x="36" y="363.636" type="curve" smooth="yes"/>
      <point x="36" y="288.462"/>
      <point x="87.067" y="235.601"/>
      <point x="226" y="200.256" type="curve" smooth="yes"/>
      <point x="284.067" y="185.484"/>
      <point x="304" y="173.193"/>
      <point x="304" y="144.126" type="curve" smooth="yes"/>
      <point x="304" y="109.044"/>
      <point x="273" y="90"/>
      <point x="227" y="90" type="curve" smooth="yes"/>
      <point x="180" y="90"/>
      <point x="135" y="110.37"/>
      <point x="105" y="145" type="curve"/>
    </contour>
    <contour>
      <point x="106" y="-205" type="line"/>
      <point x="130" y="-213"/>
      <point x="164" y="-218"/>
      <point x="203" y="-218" type="curve" smooth="yes"/>
      <point x="298" y="-218"/>
      <point x="347" y="-188"/>
      <point x="347" y="-135" type="curve" smooth="yes"/>
      <point x="347" y="-89"/>
      <point x="311" y="-64"/>
      <point x="249" y="-64" type="curve"/>
      <point x="293.665" y="16.274" type="line"/>
      <point x="207.665" y="16.274" type="line"/>
      <point x="150" y="-96" type="line"/>
      <point x="166" y="-94"/>
      <point x="179" y="-92"/>
      <point x="193" y="-92" type="curve" smooth="yes"/>
      <point x="227" y="-92"/>
      <point x="247" y="-105"/>
      <point x="247" y="-132" type="curve" smooth="yes"/>
      <point x="247" y="-158"/>
      <point x="227" y="-172"/>
      <point x="194" y="-172" type="curve" smooth="yes"/>
      <point x="174" y="-172"/>
      <point x="146" y="-167"/>
      <point x="126" y="-161" type="curve"/>
    </contour>
  </outline>
</glyph>
<glyph name="Schwa" format="2">
  <advance width="759"/>
  <unicode hex="018F"/>
  <anchor x="380" y="719" name="top"/>
  <anchor x="380" y="-20" name="bottom"/>
  <outline>
    <contour>
      <point x="589" y="294" type="line" name="dv05"/>
      <point x="590" y="409" type="line" name="dv06"/>
      <point x="37" y="409" type="line" name="sh04"/>
      <point x="35" y="394" name=".dv02"/>
      <point x="33" y="371"/>
      <point x="33" y="345" type="curve" smooth="yes" name="sh01"/>
      <point x="33" y="130"/>
      <point x="171" y="-20"/>
      <point x="380" y="-20" type="curve" smooth="yes" name="dv01"/>
      <point x="589" y="-20"/>
      <point x="726" y="129"/>
      <point x="726" y="355" type="curve" smooth="yes" name="sh03"/>
      <point x="726" y="581"/>
      <point x="590" y="720"/>
      <point x="369" y="720" type="curve" smooth="yes"/>
      <point x="242" y="720"/>
      <point x="153" y="674"/>
      <point x="89" y="595" type="curve"/>
      <point x="174" y="510" type="line"/>
      <point x="222" y="566.629" name=".sh02"/>
      <point x="284" y="600"/>
      <point x="371" y="600" type="curve" smooth="yes"/>
      <point x="504" y="600" name=".dv01"/>
      <point x="577" y="521.687"/>
      <point x="577" y="356.024" type="curve" smooth="yes"/>
      <point x="577" y="194.378" name=".sh01"/>
      <point x="507" y="100"/>
      <point x="382" y="100" type="curve" smooth="yes" name="dv02"/>
      <point x="270" y="100" name=".sh03"/>
      <point x="194" y="175.389" name=".dv03"/>
      <point x="185" y="294" type="curve" name="sh02"/>
    </contour>
  </outline>
</glyph>
<glyph name="hungarumlautcomb" format="2">
  <advance width="389"/>
  <unicode hex="030B"/>
  <anchor x="207" y="702" name="top"/>
  <anchor x="141" y="500" name="_top"/>
  <outline>
    <contour>
      <point x="200" y="551" type="line"/>
      <point x="266" y="551" type="line"/>
      <point x="366" y="702" type="line"/>
      <point x="260" y="702" type="line"/>
    </contour>
    <contour>
      <point x="20" y="551" type="line"/>
      <point x="86" y="551" type="line"/>
      <point x="186" y="702" type="line"/>
      <point x="80" y="702" type="line"/>
    </contour>
  </outline>
</glyph>
<glyph name="eta" format="2">
  <advance width="601"/>
  <unicode hex="03B7"/>
  <anchor x="290" y="520" name="topgr"/>
  <outline>
    <contour>
      <point x="79" y="0" type="line"/>
      <point x="224" y="0" type="line"/>
      <point x="224" y="384" type="line" smooth="yes"/>
      <point x="224" y="482"/>
      <point x="168" y="520"/>
      <point x="13" y="520" type="curve"/>
      <point x="13" y="410" type="line"/>
      <point x="50" y="410"/>
      <point x="79" y="396"/>
      <point x="79" y="337" type="curve" smooth="yes"/>
    </contour>
    <contour>
      <point x="406" y="-200" type="line" name="ab01"/>
      <point x="551" y="-200" type="line"/>
      <point x="551" y="304" type="line" smooth="yes"/>
      <point x="551" y="448"/>
      <point x="500.275" y="520"/>
      <point x="390.71" y="520" type="curve" smooth="yes" name="at01"/>
      <point x="281.145" y="520"/>
      <point x="220.275" y="448"/>
      <point x="201" y="370" type="curve"/>
      <point x="203" y="287" type="line"/>
      <point x="224" y="217" type="line" name="iv01"/>
      <point x="224" y="309.479"/>
      <point x="245.593" y="410"/>
      <point x="326.825" y="410" type="curve" smooth="yes" name="sv01"/>
      <point x="371.04" y="410"/>
      <point x="406" y="380.952"/>
      <point x="406" y="285.796" type="curve" smooth="yes"/>
    </contour>
  </outline>
</glyph>
<glyph name="Hardcyr" format="2">
  <advance width="735"/>
  <unicode hex="042A"/>
  <outline>
    <contour>
      <point x="21" y="579" type="line"/>
      <point x="194" y="579" type="line"/>
      <point x="227" y="693" type="line"/>
      <point x="227" y="700" type="line"/>
      <point x="21" y="700" type="line"/>
    </contour>
    <contour>
      <point x="179" y="0" type="line"/>
      <point x="445" y="0" type="line" smooth="yes"/>
      <point x="598" y="0"/>
      <point x="696" y="89.963"/>
      <point x="696" y="230.138" type="curve" smooth="yes"/>
      <point x="696" y="369.267"/>
      <point x="598" y="454"/>
      <point x="445" y="454" type="curve" smooth="yes"/>
      <point x="325" y="454" type="line"/>
      <point x="325" y="700" type="line"/>
      <point x="179" y="700" type="line"/>
    </contour>
    <contour>
      <point x="325" y="120" type="line"/>
      <point x="325" y="333" type="line"/>
      <point x="442" y="333" type="line" smooth="yes"/>
      <point x="519" y="333"/>
      <point x="550" y="299.58"/>
      <point x="550" y="232.259" type="curve" smooth="yes"/>
      <point x="550" y="164.938"/>
      <point x="519" y="120"/>
      <point x="442" y="120" type="curve" smooth="yes"/>
    </contour>
  </outline>
</glyph>
<glyph name="checyr" format="2">
  <advance width="575"/>
  <unicode hex="0447"/>
  <anchor x="288" y="-20" name="bottom"/>
  <anchor x="288" y="520" name="top"/>
  <outline>
    <contour>
      <point x="370" y="0" type="line" name="ab01"/>
      <point x="515" y="0" type="line" name="sh01"/>
      <point x="515" y="500" type="line" name="av01"/>
      <point x="370" y="500" type="line"/>
      <point x="370" y="359" type="line" smooth="yes"/>
      <point x="370" y="287.86"/>
      <point x="314" y="254"/>
      <point x="267" y="254" type="curve" smooth="yes"/>
      <point x="223.41" y="254"/>
      <point x="201" y="279.18"/>
      <point x="201" y="339.82" type="curve" smooth="yes"/>
      <point x="201" y="500" type="line"/>
      <point x="56" y="500" type="line"/>
      <point x="56" y="340" type="line" smooth="yes"/>
      <point x="56" y="203"/>
      <point x="145" y="144"/>
      <point x="231.6" y="144" type="curve" smooth="yes"/>
      <point x="287.75" y="144"/>
      <point x="342.24" y="171.31"/>
      <point x="370" y="223.89" type="curve"/>
    </contour>
  </outline>
</glyph>
<glyph name="njecyr" format="2">
  <advance width="810"/>
  <unicode hex="045A"/>
  <outline>
    <contour>
      <point x="60" y="0" type="line"/>
      <point x="205" y="0" type="line"/>
      <point x="205" y="215" type="line"/>
      <point x="365" y="215" type="line"/>
      <point x="365" y="0" type="line"/>
      <point x="510" y="0" type="line"/>
      <point x="510" y="500" type="line"/>
      <point x="365" y="500" type="line"/>
      <point x="365" y="325" type="line"/>
      <point x="205" y="325" type="line"/>
      <point x="205" y="500" type="line"/>
      <point x="60" y="500" type="line"/>
    </contour>
    <contour>
      <point x="377" y="0" type="line"/>
      <point x="597" y="0" type="line" smooth="yes"/>
      <point x="717" y="0"/>
      <point x="780" y="58.607"/>
      <point x="780" y="169.426" type="curve" smooth="yes"/>
      <point x="780" y="274.918"/>
      <point x="722" y="325"/>
      <point x="596" y="325" type="curve" smooth="yes"/>
      <point x="443" y="325" type="line"/>
      <point x="443" y="215" type="line"/>
      <point x="579.792" y="215" type="line" smooth="yes"/>
      <point x="618.583" y="215"/>
      <point x="639" y="198.941"/>
      <point x="639" y="165.588" type="curve" smooth="yes"/>
      <point x="639" y="129.765"/>
      <point x="616.307" y="110"/>
      <point x="577.11" y="110" type="curve" smooth="yes"/>
      <point x="508" y="110" type="line"/>
      <point x="508" y="500" type="line"/>
      <point x="377" y="500" type="line"/>
    </contour>
  </outline>
</glyph>
<glyph name="Euro.osf" format="2">
  <advance width="730"/>
  <outline>
    <contour>
      <point x="528" y="145" type="line"/>
      <point x="495.641" y="111.389"/>
      <point x="446.544" y="90"/>
      <point x="384.058" y="90" type="curve" smooth="yes" name="dv02"/>
      <point x="266.896" y="90"/>
      <point x="239" y="170.346"/>
      <point x="239" y="270.503" type="curve" smooth="yes"/>
      <point x="239" y="384.969"/>
      <point x="281.542" y="440"/>
      <point x="365.506" y="440" type="curve" smooth="yes" name="sv01"/>
      <point x="427.08" y="440"/>
      <point x="485.295" y="420.648"/>
      <point x="520" y="385" type="curve"/>
      <point x="598" y="463" type="line"/>
      <point x="544.835" y="520"/>
      <point x="462.962" y="550"/>
      <point x="364.076" y="550" type="curve" smooth="yes" name="at01"/>
      <point x="191.823" y="550"/>
      <point x="94" y="440.222"/>
      <point x="94" y="270.278" type="curve" smooth="yes"/>
      <point x="94" y="89.778"/>
      <point x="191.726" y="-20"/>
      <point x="362.747" y="-20" type="curve" smooth="yes" name="dv01"/>
      <point x="472.158" y="-20"/>
      <point x="552.888" y="10"/>
      <point x="606" y="67" type="curve"/>
    </contour>
    <contour>
      <point x="18" y="291" type="line"/>
      <point x="479" y="291" type="line"/>
      <point x="485" y="334" type="line"/>
      <point x="24" y="334" type="line"/>
    </contour>
    <contour>
      <point x="15" y="190" type="line"/>
      <point x="464" y="190" type="line"/>
      <point x="470" y="233" type="line"/>
      <point x="21" y="233" type="line"/>
    </contour>
  </outline>
</glyph>
<glyph name="G.ss12" format="2">
  <advance width="754"/>
  <anchor x="380" y="-19" name="bottom"/>
  <anchor x="380" y="719" name="top"/>
  <outline>
    <contour>
      <point x="348" y="272" type="line"/>
      <point x="608" y="272" type="line"/>
      <point x="651" y="0" type="line"/>
      <point x="711" y="0" type="line"/>
      <point x="711" y="382" type="line"/>
      <point x="348" y="382" type="line"/>
    </contour>
    <contour>
      <point x="596" y="344" type="line"/>
      <point x="596" y="338"/>
      <point x="596" y="308"/>
      <point x="595" y="291" type="curve" smooth="yes"/>
      <point x="587" y="180"/>
      <point x="495" y="100"/>
      <point x="374" y="100" type="curve" smooth="yes"/>
      <point x="241" y="100"/>
      <point x="179" y="196"/>
      <point x="179" y="352" type="curve" smooth="yes"/>
      <point x="179" y="517"/>
      <point x="248" y="600"/>
      <point x="397" y="600" type="curve" smooth="yes"/>
      <point x="490" y="600"/>
      <point x="563" y="568"/>
      <point x="644" y="490" type="curve"/>
      <point x="654" y="585" type="line"/>
      <point x="578" y="678"/>
      <point x="481" y="720"/>
      <point x="372" y="720" type="curve" smooth="yes"/>
      <point x="169" y="720"/>
      <point x="33" y="576"/>
      <point x="33" y="353" type="curve" smooth="yes"/>
      <point x="33" y="130"/>
      <point x="168" y="-20"/>
      <point x="363" y="-20" type="curve" smooth="yes"/>
      <point x="565" y="-20"/>
      <point x="617" y="140"/>
      <point x="634" y="230" type="curve"/>
      <point x="632" y="348" type="line"/>
    </contour>
  </outline>
</glyph>
<glyph name="G.ss14" format="2">
  <advance width="765"/>
  <anchor x="378" y="-19" name="bottom"/>
  <anchor x="378" y="719" name="top"/>
  <outline>
    <contour>
      <point x="359" y="251" type="line" name="dv05"/>
      <point x="578" y="251" type="line" name="sv02"/>
      <point x="564.904" y="156.373"/>
      <point x="503.381" y="100"/>
      <point x="397.607" y="100" type="curve" smooth="yes" name="dv04"/>
      <point x="257.582" y="100"/>
      <point x="178" y="191.365"/>
      <point x="178" y="351.004" type="curve" smooth="yes" name="dv07"/>
      <point x="178" y="507.631"/>
      <point x="259.534" y="600"/>
      <point x="396.431" y="600" type="curve" smooth="yes"/>
      <point x="489.037" y="600"/>
      <point x="557.486" y="560.747"/>
      <point x="636" y="445" type="curve"/>
      <point x="675" y="583" type="line"/>
      <point x="606.787" y="671"/>
      <point x="511.491" y="720"/>
      <point x="392.119" y="720" type="curve" smooth="yes"/>
      <point x="176.447" y="720"/>
      <point x="33" y="569"/>
      <point x="33" y="354" type="curve" smooth="yes" name="dv08"/>
      <point x="33" y="141"/>
      <point x="165.448" y="-20"/>
      <point x="374.154" y="-20" type="curve" smooth="yes" name="dv03"/>
      <point x="576.84" y="-20"/>
      <point x="614" y="163.531"/>
      <point x="614" y="349.056" type="curve" smooth="yes" name="sv03"/>
      <point x="614" y="371" type="line" name="sv01"/>
      <point x="359" y="371" type="line" name="dv06"/>
    </contour>
    <contour>
      <point x="578" y="0" type="line"/>
      <point x="699" y="0" type="line"/>
      <point x="699" y="371" type="line"/>
      <point x="578" y="371" type="line"/>
    </contour>
  </outline>
</glyph>
<glyph name="J.ss07" format="2">
  <advance width="380"/>
  <anchor x="258" y="719" name="top"/>
  <anchor x="158" y="-89" name="bottom"/>
  <outline>
    <contour>
      <point x="10" y="-144" type="line"/>
      <point x="242" y="-144"/>
      <point x="326" y="-66"/>
      <point x="326" y="148" type="curve" smooth="yes"/>
      <point x="326" y="700" type="line"/>
      <point x="180" y="700" type="line"/>
      <point x="180" y="129" type="line" smooth="yes"/>
      <point x="180" y="4"/>
      <point x="134" y="-24"/>
      <point x="10" y="-24" type="curve"/>
    </contour>
  </outline>
</glyph>
<glyph name="aogonek.ss01" format="2">
  <advance width="606"/>
  <anchor x="293" y="520" name="top"/>
  <anchor x="293" y="-20" name="bottom"/>
  <outline>
    <contour>
      <point x="241" y="-20" type="curve" smooth="yes" name="dv01"/>
      <point x="365" y="-20"/>
      <point x="430" y="79"/>
      <point x="430" y="248" type="curve" smooth="yes"/>
      <point x="430" y="423"/>
      <point x="360" y="520"/>
      <point x="232" y="520" type="curve" smooth="yes" name="at01"/>
      <point x="97" y="520"/>
      <point x="21" y="411"/>
      <point x="21" y="259" type="curve" smooth="yes"/>
      <point x="21" y="99"/>
      <point x="106" y="-20"/>
    </contour>
    <contour>
      <point x="282" y="90" type="curve" smooth="yes" name="dv02"/>
      <point x="211" y="90"/>
      <point x="166" y="152.194"/>
      <point x="166" y="254.514" type="curve" smooth="yes"/>
      <point x="166" y="353.824"/>
      <point x="209" y="410"/>
      <point x="279" y="410" type="curve" smooth="yes" name="sv01"/>
      <point x="353" y="410"/>
      <point x="398" y="348.809"/>
      <point x="398" y="250.502" type="curve" smooth="yes"/>
      <point x="398" y="153.197"/>
      <point x="354" y="90"/>
    </contour>
    <contour>
      <point x="601" y="104" type="line"/>
      <point x="591.211" y="96.282"/>
      <point x="574.021" y="90"/>
      <point x="559.621" y="90" type="curve" smooth="yes" name="dv02"/>
      <point x="545.712" y="90"/>
      <point x="543" y="110.03"/>
      <point x="543" y="175.129" type="curve" smooth="yes"/>
      <point x="543" y="500" type="line" name="ab01"/>
      <point x="398" y="500" type="line"/>
      <point x="398" y="132" type="line" smooth="yes"/>
      <point x="398" y="30"/>
      <point x="435" y="-20"/>
      <point x="526.267" y="-20" type="curve" smooth="yes" name="dv01"/>
      <point x="560.8" y="-20"/>
      <point x="586" y="-15"/>
      <point x="628" y="3" type="curve"/>
    </contour>
    <contour>
      <point x="624" y="-181" type="line"/>
      <point x="581" y="-167"/>
      <point x="560" y="-136"/>
      <point x="560" y="-102" type="curve" smooth="yes"/>
      <point x="560" y="-65"/>
      <point x="584" y="-23"/>
      <point x="623" y="1" type="curve"/>
      <point x="590" y="4" type="line"/>
      <point x="501" y="-12"/>
      <point x="450" y="-54"/>
      <point x="450" y="-107" type="curve" smooth="yes"/>
      <point x="450" y="-157"/>
      <point x="494" y="-194"/>
      <point x="567" y="-204" type="curve"/>
    </contour>
  </outline>
</glyph>
<glyph name="becyr.loclMKD" format="2">
  <advance width="578"/>
  <outline>
    <contour>
      <point x="287" y="90" type="curve" smooth="yes"/>
      <point x="211" y="90"/>
      <point x="175" y="138"/>
      <point x="175" y="220" type="curve" smooth="yes"/>
      <point x="175" y="308"/>
      <point x="217" y="357"/>
      <point x="288" y="357" type="curve" smooth="yes"/>
      <point x="359" y="357"/>
      <point x="403" y="308"/>
      <point x="403" y="220" type="curve" smooth="yes"/>
      <point x="403" y="136"/>
      <point x="362" y="90"/>
    </contour>
    <contour>
      <point x="290" y="-20" type="curve" smooth="yes"/>
      <point x="451" y="-20"/>
      <point x="548" y="75"/>
      <point x="548" y="226" type="curve" smooth="yes"/>
      <point x="548" y="376"/>
      <point x="452" y="467"/>
      <point x="291" y="467" type="curve" smooth="yes"/>
      <point x="123" y="467"/>
      <point x="30" y="369"/>
      <point x="30" y="226" type="curve" smooth="yes"/>
      <point x="30" y="82"/>
      <point x="124" y="-20"/>
    </contour>
    <contour>
      <point x="411" y="446" type="line"/>
      <point x="329.559" y="469.064"/>
      <point x="225" y="499.57"/>
      <point x="225" y="545.922" type="curve" smooth="yes"/>
      <point x="225" y="575.295"/>
      <point x="248.908" y="588.417"/>
      <point x="328.216" y="596.89" type="curve" smooth="yes"/>
      <point x="510.202" y="616.333" type="line"/>
      <point x="510.202" y="729.908" type="line"/>
      <point x="291.352" y="706.399" type="line" smooth="yes"/>
      <point x="184.047" y="694.873"/>
      <point x="80" y="669.067"/>
      <point x="80" y="569.795" type="curve" smooth="yes"/>
      <point x="80" y="479.795"/>
      <point x="175" y="444"/>
      <point x="270" y="438" type="curve"/>
    </contour>
  </outline>
</glyph>
<glyph name="ccedilla.ss12" format="2">
  <advance width="532"/>
  <anchor x="291" y="520" name="top"/>
  <anchor x="271" y="-218" name="bottom"/>
  <outline>
    <contour>
      <point x="494" y="174" type="line"/>
      <point x="443" y="117"/>
      <point x="389" y="90"/>
      <point x="325" y="90" type="curve" smooth="yes"/>
      <point x="229" y="90"/>
      <point x="175" y="155"/>
      <point x="175" y="255" type="curve" smooth="yes"/>
      <point x="175" y="353"/>
      <point x="225" y="410"/>
      <point x="324" y="410" type="curve" smooth="yes"/>
      <point x="383" y="410"/>
      <point x="427" y="391"/>
      <point x="495" y="337" type="curve"/>
      <point x="502" y="421" type="line"/>
      <point x="449" y="486"/>
      <point x="378" y="520"/>
      <point x="295" y="520" type="curve" smooth="yes"/>
      <point x="127" y="520"/>
      <point x="30" y="411"/>
      <point x="30" y="255" type="curve" smooth="yes"/>
      <point x="30" y="91"/>
      <point x="125" y="-20"/>
      <point x="294" y="-20" type="curve" smooth="yes"/>
      <point x="373" y="-20"/>
      <point x="438" y="15"/>
      <point x="501" y="91" type="curve"/>
    </contour>
    <contour>
      <point x="154" y="-205" type="line"/>
      <point x="178" y="-213"/>
      <point x="212" y="-218"/>
      <point x="251" y="-218" type="curve" smooth="yes"/>
      <point x="346" y="-218"/>
      <point x="395" y="-188"/>
      <point x="395" y="-135" type="curve" smooth="yes"/>
      <point x="395" y="-89"/>
      <point x="359" y="-64"/>
      <point x="297" y="-64" type="curve"/>
      <point x="341.665" y="16.274" type="line"/>
      <point x="255.665" y="16.274" type="line"/>
      <point x="198" y="-96" type="line"/>
      <point x="214" y="-94"/>
      <point x="227" y="-92"/>
      <point x="241" y="-92" type="curve" smooth="yes"/>
      <point x="275" y="-92"/>
      <point x="295" y="-105"/>
      <point x="295" y="-132" type="curve" smooth="yes"/>
      <point x="295" y="-158"/>
      <point x="275" y="-172"/>
      <point x="242" y="-172" type="curve" smooth="yes"/>
      <point x="222" y="-172"/>
      <point x="194" y="-167"/>
      <point x="174" y="-161" type="curve"/>
    </contour>
  </outline>
</glyph>
<glyph name="dollar.osf" format="2">
  <advance width="540"/>
  <outline>
    <contour>
      <point x="45.926" y="71.078" type="line"/>
      <point x="95.838" y="14.547"/>
      <point x="173.361" y="-20"/>
      <point x="268.938" y="-20" type="curve" smooth="yes"/>
      <point x="399.559" y="-20"/>
      <point x="494.074" y="45.057"/>
      <point x="494.074" y="156.284" type="curve" smooth="yes"/>
      <point x="494.074" y="233.933"/>
      <point x="443.544" y="274.981"/>
      <point x="297.304" y="313.68" type="curve" smooth="yes"/>
      <point x="221.49" y="333.742"/>
      <point x="199.468" y="347.258"/>
      <point x="199.468" y="377.688" type="curve" smooth="yes"/>
      <point x="199.468" y="408.118"/>
      <point x="221.857" y="430.153"/>
      <point x="266.634" y="430.153" type="curve" smooth="yes"/>
      <point x="310.292" y="430.153"/>
      <point x="360.667" y="408.828"/>
      <point x="394.25" y="372.576" type="curve"/>
      <point x="477.083" y="454.231" type="line"/>
      <point x="427.17" y="510.762"/>
      <point x="349.647" y="545.309"/>
      <point x="260.442" y="545.309" type="curve" smooth="yes"/>
      <point x="134.069" y="545.309"/>
      <point x="55.484" y="476.055"/>
      <point x="55.484" y="381.617" type="curve" smooth="yes"/>
      <point x="55.484" y="302.919"/>
      <point x="111.62" y="247.58"/>
      <point x="264.346" y="210.579" type="curve" smooth="yes"/>
      <point x="328.178" y="195.115"/>
      <point x="350.09" y="182.248"/>
      <point x="350.09" y="151.818" type="curve" smooth="yes"/>
      <point x="350.09" y="115.092"/>
      <point x="315.611" y="95.156"/>
      <point x="264.449" y="95.156" type="curve" smooth="yes"/>
      <point x="212.175" y="95.156"/>
      <point x="162.125" y="116.481"/>
      <point x="128.759" y="152.733" type="curve"/>
    </contour>
    <contour>
      <point x="247" y="540" type="line"/>
      <point x="297" y="540" type="line"/>
      <point x="297" y="660" type="line"/>
      <point x="247" y="660" type="line"/>
    </contour>
    <contour>
      <point x="248" y="-131" type="line"/>
      <point x="296" y="-131" type="line"/>
      <point x="296" y="-10" type="line"/>
      <point x="248" y="-11" type="line"/>
    </contour>
  </outline>
</glyph>
<glyph name="dotlessi.ss11" format="2">
  <advance width="370"/>
  <anchor x="185" y="520" name="top"/>
  <anchor x="185" y="-20" name="bottom"/>
  <anchor x="348" y="-2" name="ogonek"/>
  <outline>
    <contour>
      <point x="113" y="0" type="line" name="ab01"/>
      <point x="258" y="0" type="line"/>
      <point x="258" y="500" type="line"/>
      <point x="113" y="500" type="line" name="av01"/>
    </contour>
    <contour>
      <point x="18" y="390" type="line"/>
      <point x="353" y="390" type="line"/>
      <point x="353" y="500" type="line"/>
      <point x="18" y="500" type="line"/>
    </contour>
    <contour>
      <point x="18" y="0" type="line"/>
      <point x="353" y="0" type="line"/>
      <point x="353" y="110" type="line"/>
      <point x="18" y="110" type="line"/>
    </contour>
  </outline>
</glyph>
<glyph name="epsilon.ss09" format="2">
  <advance width="521"/>
  <anchor x="258" y="519" name="topgr"/>
  <outline>
    <contour>
      <point x="346" y="167" type="line"/>
      <point x="341" y="120"/>
      <point x="317" y="90"/>
      <point x="254" y="90" type="curve" smooth="yes"/>
      <point x="221" y="90"/>
      <point x="176" y="98.074"/>
      <point x="176" y="136.426" type="curve" smooth="yes"/>
      <point x="176" y="173.769"/>
      <point x="219" y="199"/>
      <point x="329" y="199" type="curve"/>
      <point x="329" y="295" type="line"/>
      <point x="220" y="295"/>
      <point x="195" y="333.333"/>
      <point x="195" y="363.596" type="curve" smooth="yes"/>
      <point x="195" y="395.877"/>
      <point x="223" y="410"/>
      <point x="258" y="410" type="curve" smooth="yes"/>
      <point x="308" y="410"/>
      <point x="341" y="380.759"/>
      <point x="346" y="333" type="curve"/>
      <point x="489" y="333" type="line"/>
      <point x="473" y="454.698"/>
      <point x="387" y="520"/>
      <point x="249" y="520" type="curve" smooth="yes"/>
      <point x="142" y="520"/>
      <point x="49" y="480"/>
      <point x="49" y="384" type="curve" smooth="yes"/>
      <point x="49" y="314"/>
      <point x="98" y="273"/>
      <point x="210" y="261" type="curve"/>
      <point x="94" y="263"/>
      <point x="30" y="228"/>
      <point x="30" y="139" type="curve" smooth="yes"/>
      <point x="30" y="25"/>
      <point x="135" y="-20"/>
      <point x="252" y="-20" type="curve" smooth="yes"/>
      <point x="400" y="-20"/>
      <point x="480" y="53"/>
      <point x="489" y="167" type="curve"/>
    </contour>
  </outline>
</glyph>
<glyph name="eth_i" format="2">
  <advance width="850"/>
  <outline>
    <contour>
      <point x="548" y="263.02" type="curve" smooth="yes"/>
      <point x="548" y="408.53"/>
      <point x="476.18" y="527.58"/>
      <point x="374.44" y="618.13" type="curve"/>
      <point x="467" y="652" type="line" smooth="yes"/>
      <point x="537.753" y="677.89"/>
      <point x="534.99" y="705.24"/>
      <point x="588.4" y="705.24" type="curve" smooth="yes"/>
      <point x="620.17" y="705.24"/>
      <point x="639.03" y="679.636"/>
      <point x="639.03" y="631.96" type="curve" smooth="yes"/>
      <point x="639.03" y="598.397"/>
      <point x="666.02" y="560"/>
      <point x="716" y="560" type="curve" smooth="yes" name="dv01"/>
      <point x="767" y="560"/>
      <point x="790" y="598"/>
      <point x="790" y="645.346" type="curve" smooth="yes"/>
      <point x="790" y="724.89"/>
      <point x="725.083" y="790"/>
      <point x="640.521" y="790" type="curve" smooth="yes"/>
      <point x="552.04" y="790"/>
      <point x="497.56" y="718.716"/>
      <point x="449" y="697" type="curve" smooth="yes"/>
      <point x="338.85" y="647.74" type="line"/>
      <point x="279.52" y="693.94"/>
      <point x="212.59" y="731.48"/>
      <point x="145" y="760" type="curve"/>
      <point x="103" y="669" type="line"/>
      <point x="147.38" y="650.59"/>
      <point x="191.53" y="629.47"/>
      <point x="232.75" y="603.62" type="curve"/>
      <point x="110" y="558" type="line"/>
      <point x="128" y="513" type="line"/>
      <point x="270.94" y="577.58" type="line"/>
      <point x="328.14" y="535.08"/>
      <point x="377.25" y="481.09"/>
      <point x="409.88" y="409.25" type="curve"/>
      <point x="384.96" y="446.92"/>
      <point x="333.31" y="471"/>
      <point x="274.69" y="471" type="curve" smooth="yes"/>
      <point x="132.93" y="471"/>
      <point x="36" y="374"/>
      <point x="36" y="231" type="curve" smooth="yes"/>
      <point x="36" y="85"/>
      <point x="138.78" y="-20"/>
      <point x="291.04" y="-20" type="curve" smooth="yes"/>
      <point x="442.36" y="-20"/>
      <point x="548" y="88.77"/>
    </contour>
    <contour>
      <point x="289.31" y="91" type="curve" smooth="yes"/>
      <point x="224.86" y="91"/>
      <point x="181" y="139"/>
      <point x="181" y="225" type="curve" smooth="yes"/>
      <point x="181" y="309"/>
      <point x="222.17" y="361"/>
      <point x="291.1" y="361" type="curve" smooth="yes"/>
      <point x="357.34" y="361"/>
      <point x="403" y="314"/>
      <point x="403" y="231" type="curve" smooth="yes"/>
      <point x="403" y="150"/>
      <point x="360.03" y="91"/>
    </contour>
    <contour>
      <point x="642" y="0" type="line" name="ab01"/>
      <point x="787" y="0" type="line"/>
      <point x="787" y="500" type="line"/>
      <point x="642" y="500" type="line" name="av01"/>
    </contour>
  </outline>
</glyph>
<glyph name="hryvnia.ss09" format="2">
  <advance width="727"/>
  <outline>
    <contour>
      <point x="21" y="275" type="line"/>
      <point x="120.7" y="275" type="line"/>
      <point x="109.47" y="250.61"/>
      <point x="103" y="221.11"/>
      <point x="103" y="185" type="curve" smooth="yes"/>
      <point x="103" y="67"/>
      <point x="193" y="-20"/>
      <point x="350" y="-20" type="curve" smooth="yes"/>
      <point x="508" y="-20"/>
      <point x="597" y="67"/>
      <point x="621" y="198" type="curve"/>
      <point x="478" y="198" type="line"/>
      <point x="464" y="128"/>
      <point x="425" y="101"/>
      <point x="357" y="101" type="curve" smooth="yes"/>
      <point x="281" y="101"/>
      <point x="249" y="135"/>
      <point x="249" y="190" type="curve" smooth="yes"/>
      <point x="249" y="232.42"/>
      <point x="276.11" y="256.79"/>
      <point x="315.5" y="275" type="curve"/>
      <point x="706" y="275" type="line"/>
      <point x="706" y="309" type="line"/>
      <point x="21" y="309" type="line"/>
    </contour>
    <contour>
      <point x="21" y="407" type="line"/>
      <point x="706" y="407" type="line"/>
      <point x="706" y="441" type="line"/>
      <point x="599.17" y="441" type="line"/>
      <point x="606.75" y="461.18"/>
      <point x="611" y="484.6"/>
      <point x="611" y="512" type="curve" smooth="yes"/>
      <point x="611" y="633"/>
      <point x="522" y="720"/>
      <point x="370" y="720" type="curve" smooth="yes"/>
      <point x="219" y="720"/>
      <point x="137" y="633"/>
      <point x="113" y="502" type="curve"/>
      <point x="256" y="502" type="line"/>
      <point x="269" y="572"/>
      <point x="302" y="599"/>
      <point x="364" y="599" type="curve" smooth="yes"/>
      <point x="434" y="599"/>
      <point x="465" y="565"/>
      <point x="465" y="515" type="curve" smooth="yes"/>
      <point x="465" y="480.18"/>
      <point x="447.86" y="457.68"/>
      <point x="421.04" y="441" type="curve"/>
      <point x="21" y="441" type="line"/>
    </contour>
  </outline>
</glyph>
<glyph name="manat.ss09" format="2">
  <advance width="747"/>
  <outline>
    <contour>
      <point x="326" y="110" type="line"/>
      <point x="427" y="157" type="line"/>
      <point x="427" y="750" type="line"/>
      <point x="326" y="703" type="line"/>
    </contour>
    <contour>
      <point x="222" y="0" type="line"/>
      <point x="222" y="308" type="line" smooth="yes"/>
      <point x="222" y="444"/>
      <point x="266.932" y="500"/>
      <point x="372.924" y="500" type="curve" smooth="yes" name="dv02"/>
      <point x="480.068" y="500"/>
      <point x="525" y="443"/>
      <point x="525" y="308" type="curve" smooth="yes"/>
      <point x="525" y="0" type="line"/>
      <point x="671" y="0" type="line" name="at02"/>
      <point x="671" y="338" type="line" smooth="yes"/>
      <point x="671" y="511"/>
      <point x="555.216" y="620"/>
      <point x="371.892" y="620" type="curve" smooth="yes" name="dv01"/>
      <point x="188.568" y="620"/>
      <point x="76" y="512"/>
      <point x="76" y="338" type="curve" smooth="yes"/>
      <point x="76" y="0" type="line" name="at01"/>
    </contour>
  </outline>
</glyph>
<glyph name="s.ss12" format="2">
  <advance width="490"/>
  <anchor x="235" y="520" name="top"/>
  <anchor x="255" y="-20" name="bottom"/>
  <outline>
    <contour>
      <point x="31" y="91" type="line"/>
      <point x="89" y="20"/>
      <point x="156" y="-20"/>
      <point x="258" y="-20" type="curve" smooth="yes"/>
      <point x="387" y="-20"/>
      <point x="456" y="45"/>
      <point x="456" y="148.833" type="curve" smooth="yes"/>
      <point x="456" y="259.693"/>
      <point x="359.526" y="282.443"/>
      <point x="279.835" y="301.235" type="curve" smooth="yes"/>
      <point x="223.763" y="314.458"/>
      <point x="176" y="325.721"/>
      <point x="176" y="364.339" type="curve" smooth="yes"/>
      <point x="176" y="390"/>
      <point x="197" y="410"/>
      <point x="247" y="410" type="curve" smooth="yes"/>
      <point x="300" y="410"/>
      <point x="359" y="388"/>
      <point x="429" y="337" type="curve"/>
      <point x="436" y="421" type="line"/>
      <point x="392" y="482"/>
      <point x="314" y="520"/>
      <point x="224" y="520" type="curve" smooth="yes"/>
      <point x="104" y="520"/>
      <point x="31" y="453"/>
      <point x="31" y="348.172" type="curve" smooth="yes"/>
      <point x="31" y="240.214"/>
      <point x="126.304" y="217.869"/>
      <point x="205.708" y="199.253" type="curve" smooth="yes"/>
      <point x="262.407" y="185.959"/>
      <point x="311" y="174.567"/>
      <point x="311" y="135.262" type="curve" smooth="yes"/>
      <point x="311" y="110"/>
      <point x="291" y="90"/>
      <point x="238" y="90" type="curve" smooth="yes"/>
      <point x="174" y="90"/>
      <point x="95" y="120"/>
      <point x="38" y="174" type="curve"/>
    </contour>
  </outline>
</glyph>
<glyph name="scedilla.ss09" format="2">
  <advance width="490"/>
  <anchor x="235" y="520" name="top"/>
  <anchor x="230" y="-218" name="bottom"/>
  <outline>
    <contour>
      <point x="30" y="150" type="line"/>
      <point x="41" y="40.355"/>
      <point x="123" y="-20"/>
      <point x="249" y="-20" type="curve" smooth="yes"/>
      <point x="378" y="-20"/>
      <point x="455" y="43"/>
      <point x="455" y="144" type="curve" smooth="yes"/>
      <point x="455" y="235"/>
      <point x="391.99" y="296.907"/>
      <point x="254" y="312" type="curve" smooth="yes"/>
      <point x="199.99" y="317.907"/>
      <point x="175" y="329"/>
      <point x="175" y="361" type="curve" smooth="yes"/>
      <point x="175" y="390"/>
      <point x="195" y="410"/>
      <point x="237" y="410" type="curve" smooth="yes"/>
      <point x="280" y="410"/>
      <point x="308" y="388.644"/>
      <point x="314" y="350" type="curve"/>
      <point x="455" y="350" type="line"/>
      <point x="441" y="459.645"/>
      <point x="362" y="520"/>
      <point x="236" y="520" type="curve" smooth="yes"/>
      <point x="105" y="520"/>
      <point x="30" y="455"/>
      <point x="30" y="355" type="curve" smooth="yes"/>
      <point x="30" y="264"/>
      <point x="92.013" y="203.123"/>
      <point x="231" y="188" type="curve" smooth="yes"/>
      <point x="285.014" y="182.123"/>
      <point x="310" y="171"/>
      <point x="310" y="138" type="curve" smooth="yes"/>
      <point x="310" y="108"/>
      <point x="288" y="90"/>
      <point x="247" y="90" type="curve" smooth="yes"/>
      <point x="205" y="90"/>
      <point x="175" y="109.322"/>
      <point x="171" y="150" type="curve"/>
    </contour>
    <contour>
      <point x="113" y="-205" type="line"/>
      <point x="137" y="-213"/>
      <point x="171" y="-218"/>
      <point x="210" y="-218" type="curve" smooth="yes"/>
      <point x="305" y="-218"/>
      <point x="354" y="-188"/>
      <point x="354" y="-135" type="curve" smooth="yes"/>
      <point x="354" y="-89"/>
      <point x="318" y="-64"/>
      <point x="256" y="-64" type="curve"/>
      <point x="300.665" y="16.274" type="line"/>
      <point x="214.665" y="16.274" type="line"/>
      <point x="157" y="-96" type="line"/>
      <point x="173" y="-94"/>
      <point x="186" y="-92"/>
      <point x="200" y="-92" type="curve" smooth="yes"/>
      <point x="234" y="-92"/>
      <point x="254" y="-105"/>
      <point x="254" y="-132" type="curve" smooth="yes"/>
      <point x="254" y="-158"/>
      <point x="234" y="-172"/>
      <point x="201" y="-172" type="curve" smooth="yes"/>
      <point x="181" y="-172"/>
      <point x="153" y="-167"/>
      <point x="133" y="-161" type="curve"/>
    </contour>
  </outline>
</glyph>
<glyph name="scedilla.ss12" format="2">
  <advance width="490"/>
  <anchor x="235" y="520" name="top"/>
  <anchor x="235" y="-218" name="bottom"/>
  <outline>
    <contour>
      <point x="31" y="91" type="line"/>
      <point x="89" y="20"/>
      <point x="156" y="-20"/>
      <point x="258" y="-20" type="curve" smooth="yes"/>
      <point x="387" y="-20"/>
      <point x="456" y="45"/>
      <point x="456" y="148.833" type="curve" smooth="yes"/>
      <point x="456" y="259.693"/>
      <point x="359.526" y="282.443"/>
      <point x="279.835" y="301.235" type="curve" smooth="yes"/>
      <point x="223.763" y="314.458"/>
      <point x="176" y="325.721"/>
      <point x="176" y="364.339" type="curve" smooth="yes"/>
      <point x="176" y="390"/>
      <point x="197" y="410"/>
      <point x="247" y="410" type="curve" smooth="yes"/>
      <point x="300" y="410"/>
      <point x="359" y="388"/>
      <point x="429" y="337" type="curve"/>
      <point x="436" y="421" type="line"/>
      <point x="392" y="482"/>
      <point x="314" y="520"/>
      <point x="224" y="520" type="curve" smooth="yes"/>
      <point x="104" y="520"/>
      <point x="31" y="453"/>
      <point x="31" y="348.172" type="curve" smooth="yes"/>
      <point x="31" y="240.214"/>
      <point x="126.304" y="217.869"/>
      <point x="205.708" y="199.253" type="curve" smooth="yes"/>
      <point x="262.407" y="185.959"/>
      <point x="311" y="174.567"/>
      <point x="311" y="135.262" type="curve" smooth="yes"/>
      <point x="311" y="110"/>
      <point x="291" y="90"/>
      <point x="238" y="90" type="curve" smooth="yes"/>
      <point x="174" y="90"/>
      <point x="95" y="120"/>
      <point x="38" y="174" type="curve"/>
    </contour>
    <contour>
      <point x="118" y="-205" type="line"/>
      <point x="142" y="-213"/>
      <point x="176" y="-218"/>
      <point x="215" y="-218" type="curve" smooth="yes"/>
      <point x="310" y="-218"/>
      <point x="359" y="-188"/>
      <point x="359" y="-135" type="curve" smooth="yes"/>
      <point x="359" y="-89"/>
      <point x="323" y="-64"/>
      <point x="261" y="-64" type="curve"/>
      <point x="305.665" y="16.274" type="line"/>
      <point x="219.665" y="16.274" type="line"/>
      <point x="162" y="-96" type="line"/>
      <point x="178" y="-94"/>
      <point x="191" y="-92"/>
      <point x="205" y="-92" type="curve" smooth="yes"/>
      <point x="239" y="-92"/>
      <point x="259" y="-105"/>
      <point x="259" y="-132" type="curve" smooth="yes"/>
      <point x="259" y="-158"/>
      <point x="239" y="-172"/>
      <point x="206" y="-172" type="curve" smooth="yes"/>
      <point x="186" y="-172"/>
      <point x="158" y="-167"/>
      <point x="138" y="-161" type="curve"/>
    </contour>
  </outline>
</glyph>
<glyph name="seven.osf" format="2">
  <advance width="565"/>
  <outline>
    <contour>
      <point x="120" y="-148" type="line"/>
      <point x="277" y="-148" type="line"/>
      <point x="540" y="472" type="line"/>
      <point x="540" y="552" type="line"/>
      <point x="34" y="552" type="line"/>
      <point x="34" y="432" type="line"/>
      <point x="366" y="432" type="line"/>
    </contour>
  </outline>
</glyph>
<glyph name="shacyr.loclBGR.ss02" format="2">
  <advance width="920"/>
  <anchor x="452" y="520" name="top"/>
  <anchor x="452" y="-20" name="bottom"/>
  <outline>
    <contour>
      <point x="518" y="500" type="line" name="iv01"/>
      <point x="373" y="500" type="line" name="sv01"/>
      <point x="373" y="186" type="line" smooth="yes"/>
      <point x="373" y="38"/>
      <point x="439" y="-20"/>
      <point x="528" y="-20" type="curve" smooth="yes" name="ab01"/>
      <point x="621" y="-20"/>
      <point x="689" y="44"/>
      <point x="706" y="139" type="curve"/>
      <point x="705" y="218" type="line"/>
      <point x="698" y="283" type="line" name="at01"/>
      <point x="698" y="166.396"/>
      <point x="659" y="90"/>
      <point x="587" y="90" type="curve" smooth="yes"/>
      <point x="545" y="90"/>
      <point x="518" y="116.064"/>
      <point x="518" y="221.32" type="curve" smooth="yes"/>
    </contour>
    <contour>
      <point x="193" y="500" type="line" name="iv01"/>
      <point x="48" y="500" type="line" name="sv01"/>
      <point x="48" y="186" type="line" smooth="yes"/>
      <point x="48" y="38"/>
      <point x="114" y="-20"/>
      <point x="203" y="-20" type="curve" smooth="yes" name="ab01"/>
      <point x="296" y="-20"/>
      <point x="364" y="44"/>
      <point x="381" y="139" type="curve"/>
      <point x="380" y="218" type="line"/>
      <point x="373" y="283" type="line" name="at01"/>
      <point x="373" y="166.396"/>
      <point x="334" y="90"/>
      <point x="262" y="90" type="curve" smooth="yes"/>
      <point x="220" y="90"/>
      <point x="193" y="116.064"/>
      <point x="193" y="221.32" type="curve" smooth="yes"/>
    </contour>
    <contour>
      <point x="901" y="104" type="line"/>
      <point x="891.211" y="96.282"/>
      <point x="874.021" y="90"/>
      <point x="859.621" y="90" type="curve" smooth="yes" name="dv02"/>
      <point x="845.712" y="90"/>
      <point x="843" y="110.03"/>
      <point x="843" y="175.129" type="curve" smooth="yes"/>
      <point x="843" y="500" type="line" name="ab01"/>
      <point x="698" y="500" type="line"/>
      <point x="698" y="132" type="line" smooth="yes"/>
      <point x="698" y="30"/>
      <point x="735" y="-20"/>
      <point x="826.267" y="-20" type="curve" smooth="yes" name="dv01"/>
      <point x="860.8" y="-20"/>
      <point x="883" y="-12"/>
      <point x="928" y="3" type="curve"/>
    </contour>
  </outline>
</glyph>
<glyph name="u.ss05" format="2">
  <advance width="580"/>
  <anchor x="290" y="-20" name="bottom"/>
  <anchor x="290" y="520" name="top"/>
  <anchor x="512" y="-2" name="ogonek"/>
  <outline>
    <contour>
      <point x="388" y="213" type="line"/>
      <point x="372" y="283" type="line"/>
      <point x="372" y="159.359"/>
      <point x="336" y="90"/>
      <point x="271" y="90" type="curve" smooth="yes"/>
      <point x="223" y="90"/>
      <point x="201" y="128.093"/>
      <point x="201" y="212.298" type="curve" smooth="yes"/>
      <point x="201" y="500" type="line"/>
      <point x="56" y="500" type="line"/>
      <point x="56" y="196" type="line" smooth="yes"/>
      <point x="56" y="51"/>
      <point x="114" y="-20"/>
      <point x="222" y="-20" type="curve" smooth="yes"/>
      <point x="312" y="-20"/>
      <point x="363" y="30"/>
      <point x="390" y="130" type="curve"/>
    </contour>
    <contour>
      <point x="372" y="0" type="line" name="ab01"/>
      <point x="517" y="0" type="line"/>
      <point x="517" y="500" type="line"/>
      <point x="372" y="500" type="line" name="av01"/>
    </contour>
  </outline>
</glyph>
